# 3ds Max Wavefront OBJ Exporter v0.97b - (c)2007 guruware
# File Created: 06.07.2017 20:01:42

mtllib EMP.mtl

#
# object group_3
#

v  0.0625 -0.1250 -0.0938
v  -0.0625 -0.1250 0.0625
v  -0.0625 -0.1250 -0.0938
v  0.0625 -0.1250 0.0625
v  -0.0625 0.1250 -0.0625
v  -0.0625 0.0625 0.0312
v  -0.0625 0.1250 0.1250
v  0.0625 0.1250 -0.0625
v  0.0625 0.0625 0.0312
v  0.0625 0.1250 0.1250
# 10 vertices

vn -0.0000 -1.0000 -0.0000
vn -1.0000 0.0000 0.0000
vn 0.0000 0.1240 -0.9923
vn 1.0000 -0.0000 -0.0000
vn 0.0000 0.1644 0.9864
vn -0.0000 -0.8321 0.5547
# 6 vertex normals

vt 0.0476 0.7879 0.0000
vt 0.1905 0.8485 0.0000
vt 0.0476 0.8485 0.0000
vt 0.1905 0.7879 0.0000
vt 0.0659 0.9679 0.0000
vt 0.1170 0.9384 0.0000
vt 0.1681 0.9679 0.0000
vt 0.0489 0.8498 0.0000
vt 0.1340 0.8498 0.0000
vt 0.5238 0.8485 0.0000
vt 0.4286 0.9697 0.0000
vt 0.4286 0.8485 0.0000
vt 0.5238 0.9697 0.0000
vt 0.4263 0.8500 0.0000
vt 0.3597 0.9385 0.0000
vt 0.3430 0.8500 0.0000
vt 0.4097 0.9680 0.0000
vt 0.3097 0.9680 0.0000
vt 0.2857 0.9394 0.0000
vt 0.2857 0.8485 0.0000
vt 0.1905 0.9394 0.0000
vt 0.1905 0.9697 0.0000
vt 0.2857 0.9697 0.0000
# 23 texture coords

g group_3
usemtl Material__25
s off
f 1/1/1 2/2/1 3/3/1 
f 2/2/1 1/1/1 4/4/1 
f 5/5/2 6/6/2 7/7/2 
f 6/6/2 3/8/2 2/9/2 
f 3/8/2 6/6/2 5/5/2 
f 3/10/3 8/11/3 1/12/3 
f 8/11/3 3/10/3 5/13/3 
f 1/14/4 9/15/4 4/16/4 
f 9/15/4 1/14/4 8/17/4 
f 8/17/4 10/18/4 9/15/4 
f 9/19/5 2/2/5 4/20/5 
f 2/2/5 9/19/5 6/21/5 
f 9/19/6 7/22/6 6/21/6 
f 7/22/6 9/19/6 10/23/6 
# 14 faces

#
# object group_4
#

v  0.0000 0.1875 0.3250
v  0.0956 0.0919 0.3580
v  0.1352 0.1875 0.3580
v  0.0956 0.2831 0.3580
v  0.0000 0.0523 0.3580
v  0.2231 0.1875 0.4375
v  0.1578 0.0297 0.4375
v  0.0000 0.3227 0.3580
v  0.1578 0.3453 0.4375
v  -0.0956 0.0919 0.3580
v  0.0000 -0.0356 0.4375
v  -0.0956 0.2831 0.3580
v  0.0000 0.4106 0.4375
v  -0.1352 0.1875 0.3580
v  -0.1578 0.0297 0.4375
v  -0.1578 0.3453 0.4375
v  -0.2231 0.1875 0.4375
# 17 vertices

vn -0.2362 0.0978 0.9668
vn -0.2362 -0.0978 0.9668
vn -0.0978 0.2362 0.9668
vn -0.6462 0.2676 0.7147
vn -0.0978 -0.2362 0.9668
vn -0.6462 -0.2676 0.7147
vn 0.0978 0.2362 0.9668
vn -0.2676 0.6462 0.7147
vn 0.0978 -0.2362 0.9668
vn -0.2676 -0.6462 0.7147
vn 0.2362 0.0978 0.9668
vn 0.2676 0.6462 0.7147
vn 0.2362 -0.0978 0.9668
vn 0.2676 -0.6462 0.7147
vn 0.6462 0.2676 0.7147
vn 0.6462 -0.2676 0.7147
# 16 vertex normals

vt 0.7619 0.1819 0.0000
vt 0.8434 0.1300 0.0000
vt 0.8772 0.1819 0.0000
vt 0.8434 0.2338 0.0000
vt 0.7619 0.1085 0.0000
vt 0.9521 0.1819 0.0000
vt 0.8964 0.0963 0.0000
vt 0.7619 0.2553 0.0000
vt 0.8964 0.2675 0.0000
vt 0.6803 0.1300 0.0000
vt 0.7619 0.0608 0.0000
vt 0.6803 0.2338 0.0000
vt 0.7619 0.3030 0.0000
vt 0.6465 0.1819 0.0000
vt 0.6273 0.0963 0.0000
vt 0.6273 0.2675 0.0000
vt 0.5716 0.1819 0.0000
# 17 texture coords

g group_4
usemtl Material__25
s off
f 11/24/7 12/25/7 13/26/7 
f 14/27/8 11/24/8 13/26/8 
f 11/24/9 15/28/9 12/25/9 
f 16/29/10 12/25/10 17/30/10 
f 12/25/10 16/29/10 13/26/10 
f 18/31/11 11/24/11 14/27/11 
f 19/32/12 13/26/12 16/29/12 
f 13/26/12 19/32/12 14/27/12 
f 11/24/13 20/33/13 15/28/13 
f 17/30/14 15/28/14 21/34/14 
f 15/28/14 17/30/14 12/25/14 
f 18/31/15 22/35/15 11/24/15 
f 19/32/16 18/31/16 14/27/16 
f 18/31/16 19/32/16 23/36/16 
f 11/24/17 24/37/17 20/33/17 
f 15/28/18 25/38/18 21/34/18 
f 25/38/18 15/28/18 20/33/18 
f 22/35/19 24/37/19 11/24/19 
f 18/31/20 26/39/20 22/35/20 
f 26/39/20 18/31/20 23/36/20 
f 20/33/21 27/40/21 25/38/21 
f 27/40/21 20/33/21 24/37/21 
f 24/37/22 26/39/22 27/40/22 
f 26/39/22 24/37/22 22/35/22 
# 24 faces

#
# object ID34
#

v  0.0000 0.3466 0.3342
v  0.1125 0.3000 0.3342
v  0.0000 0.1875 0.2812
v  -0.1125 0.3000 0.3342
v  0.1856 0.3731 0.4375
v  0.0000 0.4500 0.4375
v  0.1591 0.1875 0.3342
v  -0.1591 0.1875 0.3342
v  -0.1856 0.3731 0.4375
v  0.1856 0.0019 0.4375
v  0.0000 -0.0356 0.4375
v  0.0000 -0.0750 0.4375
v  0.1578 0.0297 0.4375
v  0.2625 0.1875 0.4375
v  0.2231 0.1875 0.4375
v  0.1578 0.3453 0.4375
v  0.0000 0.4106 0.4375
v  -0.1856 0.0019 0.4375
v  -0.1578 0.0297 0.4375
v  -0.2625 0.1875 0.4375
v  -0.2231 0.1875 0.4375
v  -0.1578 0.3453 0.4375
v  0.1125 0.0750 0.3342
v  -0.1125 0.0750 0.3342
v  0.0000 0.0284 0.3342
# 25 vertices

vn 0.1297 0.3130 -0.9409
vn -0.1297 0.3130 -0.9409
vn 0.2810 0.6784 -0.6789
vn 0.3130 0.1297 -0.9409
vn -0.3130 0.1297 -0.9409
vn -0.2810 0.6784 -0.6789
vn 0.0000 -0.0000 1.0000
vn 0.6784 0.2810 -0.6789
vn 0.3130 -0.1297 -0.9409
vn -0.3130 -0.1297 -0.9409
vn -0.6784 0.2810 -0.6789
vn -0.6784 -0.2810 -0.6789
vn -0.2810 -0.6784 -0.6789
vn 0.2810 -0.6784 -0.6789
vn 0.6784 -0.2810 -0.6789
vn 0.1297 -0.3130 -0.9409
vn -0.1297 -0.3130 -0.9409
# 17 vertex normals

vt 0.2631 0.2474 0.0000
vt 0.1724 0.2235 0.0000
vt 0.2631 0.1659 0.0000
vt 0.3537 0.2235 0.0000
vt 0.1135 0.2610 0.0000
vt 0.2631 0.3003 0.0000
vt 0.1348 0.1659 0.0000
vt 0.3913 0.1659 0.0000
vt 0.4127 0.2610 0.0000
vt 0.8892 0.4037 0.0000
vt 0.7381 0.3843 0.0000
vt 0.7381 0.3639 0.0000
vt 0.8665 0.4182 0.0000
vt 0.9517 0.4999 0.0000
vt 0.9197 0.4999 0.0000
vt 0.8892 0.5961 0.0000
vt 0.8665 0.5817 0.0000
vt 0.7381 0.6156 0.0000
vt 0.7381 0.6360 0.0000
vt 0.5871 0.4037 0.0000
vt 0.6097 0.4182 0.0000
vt 0.5245 0.4999 0.0000
vt 0.5566 0.4999 0.0000
vt 0.5871 0.5961 0.0000
vt 0.6097 0.5817 0.0000
vt 0.0515 0.1659 0.0000
vt 0.1724 0.1083 0.0000
vt 0.3537 0.1083 0.0000
vt 0.4746 0.1659 0.0000
vt 0.4127 0.0708 0.0000
vt 0.2631 0.0844 0.0000
vt 0.2631 0.0314 0.0000
vt 0.1135 0.0708 0.0000
# 33 texture coords

g ID34
usemtl Material__25
s off
f 28/41/23 29/42/23 30/43/23 
f 28/41/24 30/43/24 31/44/24 
f 28/41/25 32/45/25 29/42/25 
f 32/45/25 28/41/25 33/46/25 
f 29/42/26 34/47/26 30/43/26 
f 31/44/27 30/43/27 35/48/27 
f 36/49/28 28/41/28 31/44/28 
f 28/41/28 36/49/28 33/46/28 
f 37/50/29 38/51/29 39/52/29 
f 38/51/29 37/50/29 40/53/29 
f 40/53/29 37/50/29 41/54/29 
f 40/53/29 41/54/29 42/55/29 
f 42/55/29 41/54/29 32/56/29 
f 42/55/29 32/56/29 43/57/29 
f 43/57/29 32/56/29 44/58/29 
f 44/58/29 32/56/29 33/59/29 
f 38/51/29 45/60/29 39/52/29 
f 45/60/29 38/51/29 46/61/29 
f 45/60/29 46/61/29 47/62/29 
f 47/62/29 46/61/29 48/63/29 
f 47/62/29 48/63/29 36/64/29 
f 36/64/29 48/63/29 49/65/29 
f 36/64/29 49/65/29 44/58/29 
f 36/64/29 44/58/29 33/59/29 
f 34/47/30 32/45/30 41/66/30 
f 32/45/30 34/47/30 29/42/30 
f 30/43/31 34/47/31 50/67/31 
f 30/43/32 51/68/32 35/48/32 
f 36/49/33 35/48/33 47/69/33 
f 35/48/33 36/49/33 31/44/33 
f 47/69/34 51/68/34 45/70/34 
f 51/68/34 47/69/34 35/48/34 
f 45/70/35 52/71/35 39/72/35 
f 52/71/35 45/70/35 51/68/35 
f 52/71/36 37/73/36 39/72/36 
f 37/73/36 52/71/36 50/67/36 
f 50/67/37 41/66/37 37/73/37 
f 41/66/37 50/67/37 34/47/37 
f 30/43/38 50/67/38 52/71/38 
f 30/43/39 52/71/39 51/68/39 
# 40 faces

#
# object group_5
#

v  0.0625 0.1250 -0.0625
v  -0.0625 0.1250 0.3125
v  -0.0625 0.1250 -0.0625
v  0.0625 0.1250 0.3125
v  -0.0625 0.1875 -0.0625
v  0.0625 0.1875 -0.0625
v  0.0625 0.2500 0.3125
v  0.0625 0.2500 -0.0000
v  -0.0625 0.2500 0.3125
v  -0.0625 0.2500 -0.0000
# 10 vertices

vn 0.0000 -1.0000 -0.0000
vn 0.0000 0.0000 -1.0000
vn 1.0000 0.0000 0.0000
vn 0.0000 0.0000 1.0000
vn -1.0000 0.0000 -0.0000
vn -0.0000 0.7071 -0.7071
vn 0.0000 1.0000 0.0000
# 7 vertex normals

vt 0.4286 0.5455 0.0000
vt 0.3333 0.7273 0.0000
vt 0.3333 0.5455 0.0000
vt 0.4286 0.7273 0.0000
vt 0.2381 0.5152 0.0000
vt 0.1429 0.4848 0.0000
vt 0.2381 0.4848 0.0000
vt 0.1429 0.5152 0.0000
vt 0.2381 0.5455 0.0000
vt 0.2381 0.6970 0.0000
vt 0.2857 0.7273 0.0000
vt 0.3333 0.4848 0.0000
vt 0.1429 0.6970 0.0000
vt 0.0476 0.5455 0.0000
vt 0.1429 0.5455 0.0000
vt 0.0476 0.7273 0.0000
vt 0.0952 0.7273 0.0000
# 17 texture coords

g group_5
usemtl Material__25
s off
f 53/74/40 54/75/40 55/76/40 
f 54/75/40 53/74/40 56/77/40 
f 57/78/41 53/79/41 55/80/41 
f 53/79/41 57/78/41 58/81/41 
f 53/75/42 59/82/42 56/76/42 
f 59/82/42 53/75/42 60/83/42 
f 60/83/42 53/75/42 58/84/42 
f 59/76/43 54/80/43 56/85/43 
f 54/80/43 59/76/43 61/82/43 
f 62/86/44 54/87/44 61/88/44 
f 54/87/44 62/86/44 55/89/44 
f 55/89/44 62/86/44 57/90/44 
f 62/81/45 58/82/45 57/88/45 
f 58/82/45 62/81/45 60/78/45 
f 59/82/46 62/86/46 61/88/46 
f 62/86/46 59/82/46 60/83/46 
# 16 faces

#
# object group_1
#

v  0.0313 0.1875 0.3125
v  0.0000 0.1875 0.5000
v  0.0221 0.1654 0.3125
v  0.0221 0.2096 0.3125
v  0.0000 0.1563 0.3125
v  0.0000 0.2188 0.3125
v  -0.0221 0.1654 0.3125
v  -0.0221 0.2096 0.3125
v  -0.0312 0.1875 0.3125
# 9 vertices

vn 0.9131 -0.3782 0.1522
vn 0.9131 0.3782 0.1522
vn 0.3782 -0.9131 0.1522
vn 0.3782 0.9131 0.1522
vn -0.3782 -0.9131 0.1522
vn -0.3782 0.9131 0.1522
vn -0.9131 -0.3782 0.1522
vn -0.9131 0.3782 0.1522
# 8 vertex normals

vt 0.6398 0.6979 0.0000
vt 0.6392 0.7872 0.0000
vt 0.6209 0.6978 0.0000
vt 0.5927 0.6976 0.0000
vt 0.5732 0.7868 0.0000
vt 0.5738 0.6975 0.0000
vt 0.5691 0.6975 0.0000
vt 0.5496 0.7867 0.0000
vt 0.5502 0.6974 0.0000
vt 0.5434 0.7867 0.0000
vt 0.5245 0.7866 0.0000
vt 0.5251 0.6973 0.0000
vt 0.6895 0.7874 0.0000
vt 0.6712 0.6981 0.0000
vt 0.6901 0.6982 0.0000
vt 0.6644 0.7873 0.0000
vt 0.6455 0.7872 0.0000
vt 0.6650 0.6980 0.0000
vt 0.6942 0.7874 0.0000
vt 0.7137 0.6983 0.0000
vt 0.7131 0.7875 0.0000
vt 0.5968 0.7869 0.0000
vt 0.5974 0.6977 0.0000
vt 0.6157 0.7870 0.0000
# 24 texture coords

g group_1
usemtl Material__25
s off
f 63/91/47 64/92/47 65/93/47 
f 66/94/48 64/95/48 63/96/48 
f 65/97/49 64/98/49 67/99/49 
f 66/100/50 68/101/50 64/102/50 
f 64/103/51 69/104/51 67/105/51 
f 68/106/52 70/107/52 64/108/52 
f 69/109/53 64/110/53 71/111/53 
f 71/112/54 64/113/54 70/114/54 
# 8 faces

#
# object group_2
#

v  0.0156 0.1707 0.4687
v  -0.0156 0.1707 0.5000
v  -0.0156 0.1707 0.4687
v  0.0156 0.1707 0.5000
v  -0.0156 0.2019 0.4687
v  -0.0156 0.2019 0.5000
v  0.0156 0.2019 0.4687
v  0.0156 0.2019 0.5000
# 8 vertices

vn 0.0000 -1.0000 -0.0000
vn -1.0000 0.0000 -0.0000
vn 0.0000 0.0000 -1.0000
vn 1.0000 0.0000 -0.0000
vn 0.0000 0.0000 1.0000
vn 0.0000 1.0000 -0.0000
# 6 vertex normals

vt 0.6820 0.9397 0.0000
vt 0.6518 0.9691 0.0000
vt 0.6518 0.9397 0.0000
vt 0.6820 0.9691 0.0000
vt 0.6209 0.9390 0.0000
vt 0.6511 0.9097 0.0000
vt 0.6511 0.9390 0.0000
vt 0.6209 0.9097 0.0000
vt 0.6511 0.9691 0.0000
vt 0.6209 0.9397 0.0000
vt 0.6511 0.9397 0.0000
vt 0.6209 0.9691 0.0000
vt 0.7129 0.9097 0.0000
vt 0.6827 0.9390 0.0000
vt 0.6827 0.9097 0.0000
vt 0.7129 0.9390 0.0000
vt 0.6820 0.9390 0.0000
vt 0.6518 0.9097 0.0000
vt 0.6820 0.9097 0.0000
vt 0.6518 0.9390 0.0000
vt 0.7136 0.9393 0.0000
vt 0.6834 0.9687 0.0000
vt 0.6834 0.9393 0.0000
vt 0.7136 0.9687 0.0000
# 24 texture coords

g group_2
usemtl Material__25
s off
f 72/115/55 73/116/55 74/117/55 
f 73/116/55 72/115/55 75/118/55 
f 76/119/56 73/120/56 77/121/56 
f 73/120/56 76/119/56 74/122/56 
f 76/123/57 72/124/57 74/125/57 
f 72/124/57 76/123/57 78/126/57 
f 72/127/58 79/128/58 75/129/58 
f 79/128/58 72/127/58 78/130/58 
f 79/131/59 73/132/59 75/133/59 
f 73/132/59 79/131/59 77/134/59 
f 79/135/60 76/136/60 77/137/60 
f 76/136/60 79/135/60 78/138/60 
# 12 faces

