# 3ds Max Wavefront OBJ Exporter v0.97b - (c)2007 guruware
# File Created: 28.05.2017 16:15:58

mtllib pistol.mtl

#
# object group_5
#

v  -0.0156 0.2344 -0.0625
v  -0.0156 0.2031 -0.0000
v  -0.0156 0.2344 -0.0000
v  -0.0156 0.2031 -0.0469
v  -0.0156 0.2188 -0.0625
v  0.0156 0.2188 -0.0625
v  0.0156 0.2344 -0.0625
v  0.0156 0.2031 -0.0469
v  0.0156 0.2344 -0.0000
v  0.0156 0.2031 -0.0000
# 10 vertices

vn -1.0000 0.0000 -0.0000
vn 0.0000 0.0000 -1.0000
vn 0.0000 -0.7071 -0.7071
vn 0.0000 1.0000 -0.0000
vn 1.0000 0.0000 -0.0000
# 5 vertex normals

vt 0.5914 0.0646 0.0000
vt 0.4838 0.1356 0.0000
vt 0.4838 0.0646 0.0000
vt 0.5645 0.1356 0.0000
vt 0.5914 0.1001 0.0000
vt 0.5972 0.1414 0.0000
vt 0.6510 0.1769 0.0000
vt 0.5972 0.1769 0.0000
vt 0.6510 0.1414 0.0000
vt 0.5958 0.0646 0.0000
vt 0.6496 0.1148 0.0000
vt 0.5958 0.1148 0.0000
vt 0.6496 0.0646 0.0000
vt 0.4838 0.1414 0.0000
vt 0.5914 0.2124 0.0000
vt 0.4838 0.2124 0.0000
vt 0.5914 0.1414 0.0000
vt 0.5107 0.2910 0.0000
vt 0.5914 0.2200 0.0000
vt 0.5914 0.2910 0.0000
vt 0.4838 0.2200 0.0000
vt 0.4838 0.2555 0.0000
# 22 texture coords

g group_5
usemtl Material__2
s off
f 1/1/1 2/2/1 3/3/1 
f 2/2/1 1/1/1 4/4/1 
f 4/4/1 1/1/1 5/5/1 
f 1/6/2 6/7/2 5/8/2 
f 6/7/2 1/6/2 7/9/2 
f 5/10/3 8/11/3 4/12/3 
f 8/11/3 5/10/3 6/13/3 
f 9/14/4 1/15/4 3/16/4 
f 1/15/4 9/14/4 7/17/4 
f 8/18/5 9/19/5 10/20/5 
f 9/19/5 8/18/5 7/21/5 
f 7/21/5 8/18/5 6/22/5 
# 12 faces

#
# object group_4
#

v  0.0625 0.1875 -0.0625
v  0.0625 0.2500 0.3750
v  0.0625 0.1875 0.3750
v  0.0625 0.2500 -0.0000
v  -0.0625 0.2500 -0.0000
v  -0.0625 0.1875 -0.0625
v  -0.0625 0.2500 0.3750
v  -0.0625 0.1875 0.3750
# 8 vertices

vn 1.0000 0.0000 -0.0000
vn 0.0000 0.7071 -0.7071
vn 0.0000 1.0000 -0.0000
vn 0.0000 0.0000 1.0000
vn 0.0000 -1.0000 -0.0000
vn -1.0000 0.0000 -0.0000
# 6 vertex normals

vt 0.2174 0.8824 0.0000
vt 0.1739 0.4706 0.0000
vt 0.2174 0.4706 0.0000
vt 0.1739 0.8235 0.0000
vt 0.1739 0.8824 0.0000
vt 0.0870 0.8235 0.0000
vt 0.0870 0.8824 0.0000
vt 0.0870 0.4706 0.0000
vt 0.0870 0.4118 0.0000
vt 0.1739 0.4118 0.0000
vt 0.9416 0.0710 0.0000
vt 0.8570 0.5742 0.0000
vt 0.8555 0.0714 0.0000
vt 0.9431 0.5738 0.0000
vt 0.0435 0.4706 0.0000
vt 0.0435 0.8824 0.0000
# 16 texture coords

g group_4
usemtl Material__2
s off
f 11/23/6 12/24/6 13/25/6 
f 12/24/6 11/23/6 14/26/6 
f 15/27/7 11/28/7 16/26/7 
f 11/28/7 15/27/7 14/29/7 
f 12/24/8 15/28/8 17/30/8 
f 15/28/8 12/24/8 14/26/8 
f 12/24/9 18/31/9 13/32/9 
f 18/31/9 12/24/9 17/30/9 
f 11/33/10 18/34/10 16/35/10 
f 18/34/10 11/33/10 13/36/10 
f 15/28/11 18/37/11 17/30/11 
f 18/37/11 15/28/11 16/38/11 
# 12 faces

#
# object group_2
#

v  0.0625 -0.1250 -0.0938
v  -0.0625 -0.1250 0.0312
v  -0.0625 -0.1250 -0.0938
v  0.0625 -0.1250 0.0312
v  -0.0625 0.1250 -0.0625
v  -0.0625 0.1250 0.0625
v  0.0625 0.1250 -0.0625
v  0.0625 0.1250 0.0625
# 8 vertices

vn -0.0000 -1.0000 -0.0000
vn 0.0000 -1.0000 -0.0000
vn -1.0000 0.0000 -0.0000
vn 0.0000 0.1240 -0.9923
vn 1.0000 0.0000 -0.0000
vn 0.0000 -0.1240 0.9923
# 6 vertex normals

vt 0.6522 0.5882 0.0000
vt 0.5652 0.4706 0.0000
vt 0.6522 0.4706 0.0000
vt 0.5652 0.5882 0.0000
vt 0.7391 0.9412 0.0000
vt 0.8261 0.7059 0.0000
vt 0.8261 0.9412 0.0000
vt 0.7391 0.7059 0.0000
vt 0.6522 0.9412 0.0000
vt 0.6522 0.7059 0.0000
vt 0.5652 0.7059 0.0000
vt 0.5652 0.9412 0.0000
vt 0.9130 0.9412 0.0000
vt 0.9130 0.7059 0.0000
# 14 texture coords

g group_2
usemtl Material__2
s off
f 19/39/12 20/40/12 21/41/12 
f 20/40/13 19/39/13 22/42/13 
f 23/43/14 20/44/14 24/45/14 
f 20/44/14 23/43/14 21/46/14 
f 21/46/15 25/47/15 19/48/15 
f 25/47/15 21/46/15 23/43/15 
f 22/49/16 25/47/16 26/50/16 
f 25/47/16 22/49/16 19/48/16 
f 26/51/17 20/44/17 22/52/17 
f 20/44/17 26/51/17 24/45/17 
# 10 faces

#
# object group_1
#

v  -0.0180 0.2187 0.3281
v  -0.0361 0.1875 0.3906
v  -0.0180 0.2187 0.3906
v  -0.0361 0.1875 0.3281
v  -0.0180 0.1562 0.3906
v  -0.0180 0.1562 0.3281
v  0.0361 0.1875 0.3906
v  0.0180 0.1562 0.3906
v  0.0180 0.2187 0.3906
v  0.0180 0.2187 0.3281
v  0.0180 0.1562 0.3281
v  0.0361 0.1875 0.3281
# 12 vertices

vn -0.8660 0.5000 -0.0000
vn -0.8660 -0.5000 -0.0000
vn 0.0000 0.0000 1.0000
vn 0.0000 1.0000 -0.0000
vn 0.0000 -1.0000 -0.0000
vn 0.8660 -0.5000 -0.0000
vn 0.8660 0.5000 -0.0000
# 7 vertex normals

vt 0.1254 0.2050 0.0000
vt 0.0522 0.2434 0.0000
vt 0.0522 0.2050 0.0000
vt 0.1254 0.2434 0.0000
vt 0.1254 0.2482 0.0000
vt 0.0522 0.2865 0.0000
vt 0.0522 0.2482 0.0000
vt 0.1254 0.2865 0.0000
vt 0.3069 0.2358 0.0000
vt 0.3685 0.2907 0.0000
vt 0.3274 0.2907 0.0000
vt 0.3890 0.2358 0.0000
vt 0.3274 0.1809 0.0000
vt 0.3685 0.1809 0.0000
vt 0.0522 0.1543 0.0000
vt 0.1254 0.1986 0.0000
vt 0.0522 0.1986 0.0000
vt 0.1254 0.1543 0.0000
vt 0.1413 0.0727 0.0000
vt 0.2145 0.1171 0.0000
vt 0.1413 0.1171 0.0000
vt 0.2145 0.0727 0.0000
vt 0.1300 0.2434 0.0000
vt 0.2032 0.2050 0.0000
vt 0.2032 0.2434 0.0000
vt 0.1300 0.2050 0.0000
vt 0.1315 0.1927 0.0000
vt 0.2047 0.1543 0.0000
vt 0.2047 0.1927 0.0000
vt 0.1315 0.1543 0.0000
# 30 texture coords

g group_1
usemtl Material__2
s off
f 27/53/18 28/54/18 29/55/18 
f 28/54/18 27/53/18 30/56/18 
f 30/57/19 31/58/19 28/59/19 
f 31/58/19 30/57/19 32/60/19 
f 33/61/20 31/62/20 34/63/20 
f 31/62/20 33/61/20 28/64/20 
f 28/64/20 33/61/20 35/65/20 
f 28/64/20 35/65/20 29/66/20 
f 35/67/21 27/68/21 29/69/21 
f 27/68/21 35/67/21 36/70/21 
f 37/71/22 31/72/22 32/73/22 
f 31/72/22 37/71/22 34/74/22 
f 37/75/23 33/76/23 34/77/23 
f 33/76/23 37/75/23 38/78/23 
f 38/79/24 35/80/24 33/81/24 
f 35/80/24 38/79/24 36/82/24 
# 16 faces

#
# object group_0
#

v  -0.0625 0.1875 -0.0625
v  0.0625 0.1250 -0.0625
v  -0.0625 0.1250 -0.0625
v  0.0625 0.1875 -0.0625
v  0.0625 0.1875 0.3750
v  -0.0625 0.1875 0.3750
v  0.0625 0.1250 0.3750
v  -0.0625 0.1250 0.3750
# 8 vertices

vn 0.0000 0.0000 -1.0000
vn 0.0000 1.0000 -0.0000
vn 1.0000 0.0000 -0.0000
vn 0.0000 -1.0000 -0.0000
vn -1.0000 0.0000 -0.0000
vn 0.0000 0.0000 1.0000
# 6 vertex normals

vt 0.3478 0.8824 0.0000
vt 0.4348 0.9412 0.0000
vt 0.3478 0.9412 0.0000
vt 0.4348 0.8824 0.0000
vt 0.8410 0.0715 0.0000
vt 0.7564 0.5747 0.0000
vt 0.7549 0.0718 0.0000
vt 0.8425 0.5743 0.0000
vt 0.3043 0.4706 0.0000
vt 0.3478 0.4706 0.0000
vt 0.3043 0.8824 0.0000
vt 0.4348 0.4706 0.0000
vt 0.4783 0.8824 0.0000
vt 0.4783 0.4706 0.0000
vt 0.3478 0.4118 0.0000
vt 0.4348 0.4118 0.0000
# 16 texture coords

g group_0
usemtl Material__2
s off
f 39/83/25 40/84/25 41/85/25 
f 40/84/25 39/83/25 42/86/25 
f 43/87/26 39/88/26 44/89/26 
f 39/88/26 43/87/26 42/90/26 
f 40/83/27 43/91/27 45/92/27 
f 43/91/27 40/83/27 42/93/27 
f 40/83/28 46/94/28 41/86/28 
f 46/94/28 40/83/28 45/92/28 
f 39/94/29 46/95/29 44/86/29 
f 46/95/29 39/94/29 41/96/29 
f 43/94/30 46/97/30 45/98/30 
f 46/97/30 43/94/30 44/92/30 
# 12 faces

