# 3ds Max Wavefront OBJ Exporter v0.97b - (c)2007 guruware
# File Created: 28.05.2017 15:59:43

mtllib rifle.mtl

#
# object group_1
#

v  0.0625 -0.1250 -0.0938
v  -0.0625 -0.1250 0.0312
v  -0.0625 -0.1250 -0.0938
v  0.0625 -0.1250 0.0312
v  -0.0625 0.0938 -0.0625
v  -0.0625 0.0938 0.0625
v  0.0625 0.0938 -0.0625
v  0.0625 0.0938 0.0625
# 8 vertices

vn -0.0000 -1.0000 -0.0000
vn -1.0000 0.0000 -0.0000
vn 0.0000 0.1414 -0.9899
vn 1.0000 0.0000 -0.0000
vn -0.0000 -0.1414 0.9899
# 5 vertex normals

vt 0.8696 0.0938 0.0000
vt 0.7826 0.1563 0.0000
vt 0.7826 0.0938 0.0000
vt 0.8696 0.1563 0.0000
vt 0.7826 0.3125 0.0000
vt 0.8696 0.2188 0.0000
vt 0.8696 0.3125 0.0000
vt 0.7826 0.2188 0.0000
vt 0.9565 0.2188 0.0000
vt 0.9565 0.3125 0.0000
vt 0.6087 0.2188 0.0000
vt 0.6957 0.3125 0.0000
vt 0.6087 0.3125 0.0000
vt 0.6957 0.2188 0.0000
# 14 texture coords

g group_1
usemtl Material__24
s off
f 1/1/1 2/2/1 3/3/1 
f 2/2/1 1/1/1 4/4/1 
f 5/5/2 2/6/2 6/7/2 
f 2/6/2 5/5/2 3/8/2 
f 3/9/3 7/7/3 1/6/3 
f 7/7/3 3/9/3 5/10/3 
f 4/11/4 7/12/4 8/13/4 
f 7/12/4 4/11/4 1/14/4 
f 8/5/5 2/14/5 4/8/5 
f 2/14/5 8/5/5 6/12/5 
# 10 faces

#
# object group_4
#

v  0.0625 0.1563 0.2500
v  -0.0625 0.0938 0.2500
v  0.0625 0.0938 0.2500
v  -0.0625 0.1563 0.2500
v  0.0312 0.1875 0.2500
v  -0.0312 0.1875 0.2500
v  0.0625 0.1563 -0.4375
v  0.0625 0.0938 -0.1562
v  0.0625 0.0313 -0.2500
v  0.0625 0.0000 -0.4375
v  0.0312 0.1875 -0.4375
v  -0.0312 0.1875 -0.4375
v  -0.0625 0.1563 -0.4375
v  -0.0625 0.0938 -0.1562
v  -0.0625 0.0313 -0.2500
v  -0.0625 0.0000 -0.4375
# 16 vertices

vn 0.0000 -0.0000 1.0000
vn -0.0000 0.0000 1.0000
vn 1.0000 0.0000 -0.0000
vn 0.7071 0.7071 -0.0000
vn 0.0000 1.0000 -0.0000
vn -0.7071 0.7071 -0.0000
vn -1.0000 -0.0000 -0.0000
vn -1.0000 -0.0000 0.0000
vn 0.0000 -1.0000 -0.0000
vn 0.0000 -0.8321 0.5547
vn 0.0000 -0.9864 0.1644
vn 0.0000 0.0000 -1.0000
# 12 vertex normals

vt 0.6509 0.5726 0.0000
vt 0.5669 0.5328 0.0000
vt 0.6509 0.5328 0.0000
vt 0.5669 0.5726 0.0000
vt 0.6299 0.5925 0.0000
vt 0.5879 0.5925 0.0000
vt 0.5217 0.3750 0.0000
vt 0.0435 0.3438 0.0000
vt 0.5217 0.3438 0.0000
vt 0.2609 0.3750 0.0000
vt 0.1739 0.4063 0.0000
vt 0.0435 0.4375 0.0000
vt 0.0435 0.3125 0.0000
vt 0.5217 0.3125 0.0000
vt 0.0435 0.2813 0.0000
vt 0.5217 0.2813 0.0000
vt 0.0435 0.2500 0.0000
vt 0.5217 0.2500 0.0000
vt 0.5217 0.2188 0.0000
vt 0.2609 0.2188 0.0000
vt 0.1739 0.1875 0.0000
vt 0.0435 0.1563 0.0000
vt 0.2609 0.0313 0.0000
vt 0.5217 0.0938 0.0000
vt 0.2609 0.0938 0.0000
vt 0.5217 0.0313 0.0000
vt 0.1739 0.0313 0.0000
vt 0.1739 0.0938 0.0000
vt 0.0435 0.0313 0.0000
vt 0.0435 0.0938 0.0000
vt 0.6950 0.3760 0.0000
vt 0.6109 0.4525 0.0000
vt 0.6109 0.3760 0.0000
vt 0.6950 0.4525 0.0000
vt 0.6740 0.4678 0.0000
vt 0.6319 0.4678 0.0000
# 36 texture coords

g group_4
usemtl Material__24
s off
f 9/15/6 10/16/6 11/17/6 
f 10/16/6 9/15/6 12/18/6 
f 12/18/6 9/15/6 13/19/6 
f 12/18/7 13/19/7 14/20/7 
f 11/21/8 15/22/8 9/23/8 
f 15/22/8 11/21/8 16/24/8 
f 15/22/8 16/24/8 17/25/8 
f 15/22/8 17/25/8 18/26/8 
f 9/23/9 19/27/9 13/28/9 
f 19/27/9 9/23/9 15/22/9 
f 13/28/10 20/29/10 14/30/10 
f 20/29/10 13/28/10 19/27/10 
f 14/30/11 21/31/11 12/32/11 
f 21/31/11 14/30/11 20/29/11 
f 21/31/12 10/33/12 12/32/12 
f 10/33/13 21/31/13 22/34/13 
f 22/34/13 21/31/13 23/35/13 
f 23/35/13 21/31/13 24/36/13 
f 16/37/14 10/38/14 22/39/14 
f 10/38/14 16/37/14 11/40/14 
f 17/41/15 22/39/15 23/42/15 
f 22/39/15 17/41/15 16/37/15 
f 18/43/16 23/42/16 24/44/16 
f 23/42/16 18/43/16 17/41/16 
f 24/45/17 15/46/17 18/47/17 
f 15/46/17 24/45/17 21/48/17 
f 15/46/17 21/48/17 20/49/17 
f 15/46/17 20/49/17 19/50/17 
# 28 faces

#
# object group_3
#

v  0.0625 0.1562 0.8750
v  -0.0625 0.1562 0.2500
v  -0.0625 0.1562 0.8750
v  0.0625 0.1562 0.2500
v  -0.0625 0.1250 0.8750
v  -0.0625 0.1250 0.2500
v  0.0625 0.1250 0.8750
v  -0.0312 0.0937 0.8750
v  0.0312 0.0937 0.8750
v  0.0625 0.1250 0.2500
v  -0.0312 0.0937 0.2500
v  0.0312 0.0937 0.2500
# 12 vertices

vn 0.0000 1.0000 -0.0000
vn -1.0000 0.0000 -0.0000
vn -1.0000 0.0000 0.0000
vn 0.0000 -0.0000 1.0000
vn 1.0000 0.0000 -0.0000
vn -0.7071 -0.7071 -0.0000
vn 0.0000 -1.0000 -0.0000
vn 0.7071 -0.7071 -0.0000
# 8 vertex normals

vt 0.4783 0.7188 0.0000
vt 0.0435 0.6563 0.0000
vt 0.4783 0.6563 0.0000
vt 0.0435 0.7188 0.0000
vt 0.0435 0.5313 0.0000
vt 0.4783 0.5000 0.0000
vt 0.4783 0.5313 0.0000
vt 0.0435 0.5000 0.0000
vt 0.6513 0.6961 0.0000
vt 0.5882 0.6742 0.0000
vt 0.6303 0.6742 0.0000
vt 0.5672 0.6961 0.0000
vt 0.6513 0.7181 0.0000
vt 0.5672 0.7181 0.0000
vt 0.0435 0.6250 0.0000
vt 0.4783 0.6250 0.0000
vt 0.4783 0.5625 0.0000
vt 0.0435 0.5625 0.0000
vt 0.4783 0.5938 0.0000
vt 0.0435 0.5938 0.0000
# 20 texture coords

g group_3
usemtl Material__24
s off
f 25/51/18 26/52/18 27/53/18 
f 26/52/18 25/51/18 28/54/18 
f 26/55/19 29/56/19 27/57/19 
f 29/56/20 26/55/20 30/58/20 
f 31/59/21 32/60/21 33/61/21 
f 32/60/21 31/59/21 29/62/21 
f 29/62/21 31/59/21 25/63/21 
f 29/62/21 25/63/21 27/64/21 
f 31/53/22 28/65/22 25/66/22 
f 28/65/22 31/53/22 34/52/22 
f 35/55/23 29/67/23 30/68/23 
f 29/67/23 35/55/23 32/57/23 
f 36/68/24 32/69/24 35/70/24 
f 32/69/24 36/68/24 33/67/24 
f 34/70/25 33/66/25 36/65/25 
f 33/66/25 34/70/25 31/69/25 
# 16 faces

#
# object group_2
#

v  0.0361 0.1562 1.1875
v  0.0180 0.1875 0.2500
v  0.0180 0.1875 1.1875
v  0.0361 0.1562 0.2500
v  -0.0180 0.1875 0.2500
v  -0.0180 0.1875 1.1875
v  -0.0180 0.1250 1.1875
v  0.0180 0.1250 1.1875
v  -0.0361 0.1562 1.1875
v  0.0180 0.1250 0.2500
v  -0.0361 0.1562 0.2500
v  -0.0180 0.1250 0.2500
# 12 vertices

vn 0.8660 0.5000 0.0000
vn 0.0000 1.0000 0.0000
vn 0.0000 -0.0000 1.0000
vn 0.8660 -0.5000 -0.0000
vn -0.8660 0.5000 0.0000
vn 0.0000 -1.0000 -0.0000
vn -0.8660 -0.5000 -0.0000
# 7 vertex normals

vt 0.0435 0.8125 0.0000
vt 0.6957 0.8438 0.0000
vt 0.0435 0.8438 0.0000
vt 0.6957 0.8125 0.0000
vt 0.0435 0.7813 0.0000
vt 0.6957 0.7813 0.0000
vt 0.8696 0.9375 0.0000
vt 0.8261 0.9063 0.0000
vt 0.7826 0.9375 0.0000
vt 0.8261 0.9688 0.0000
vt 0.0435 0.8750 0.0000
vt 0.6957 0.9063 0.0000
vt 0.0435 0.9063 0.0000
vt 0.6957 0.8750 0.0000
vt 0.6957 0.9688 0.0000
vt 0.0435 0.9375 0.0000
vt 0.6957 0.9375 0.0000
vt 0.0435 0.9688 0.0000
# 18 texture coords

g group_2
usemtl Material__24
s off
f 37/71/26 38/72/26 39/73/26 
f 38/72/26 37/71/26 40/74/26 
f 39/75/27 41/74/27 42/71/27 
f 41/74/27 39/75/27 38/76/27 
f 37/77/28 43/78/28 44/78/28 
f 43/78/28 37/77/28 45/79/28 
f 45/79/28 37/77/28 39/80/28 
f 45/79/28 39/80/28 42/80/28 
f 44/81/29 40/82/29 37/83/29 
f 40/82/29 44/81/29 46/84/29 
f 41/72/30 45/81/30 42/73/30 
f 45/81/30 41/72/30 47/84/30 
f 46/85/31 43/86/31 48/87/31 
f 43/86/31 46/85/31 44/88/31 
f 47/82/32 43/86/32 45/83/32 
f 43/86/32 47/82/32 48/87/32 
# 16 faces

