# 3ds Max Wavefront OBJ Exporter v0.97b - (c)2007 guruware
# File Created: 03.04.2017 21:26:33

mtllib rpg.mtl

#
# object group_5
#

v  0.2461 0.9843 -0.4921
v  0.1230 1.1973 1.2303
v  0.2461 0.9843 1.2303
v  0.1230 1.1973 -0.4921
v  0.1230 0.7712 -0.4921
v  0.1230 0.7712 1.2303
v  0.1845 1.3039 -0.7382
v  0.3691 0.9843 -0.7382
v  -0.1230 1.1973 -0.4921
v  -0.1230 1.1973 1.2303
v  -0.1230 0.7712 1.2303
v  -0.2461 0.9843 1.2303
v  -0.1230 0.7712 -0.4921
v  0.1845 0.6646 -0.7382
v  0.3691 0.9843 -2.4606
v  0.1230 1.1973 -2.7067
v  0.1845 1.3039 -2.4606
v  0.2461 0.9843 -2.7067
v  0.2461 0.9843 -3.9370
v  0.1230 1.1973 -3.9370
v  -0.1846 1.3039 -0.7382
v  -0.2461 0.9843 -0.4921
v  -0.1846 0.6646 -0.7382
v  0.1230 0.7712 -2.7067
v  0.1845 0.6646 -2.4606
v  0.1230 0.7712 -3.9370
v  -0.1230 1.1973 -3.9370
v  -0.1230 1.1973 -2.7067
v  -0.1846 1.3039 -2.4606
v  0.3691 0.9843 -4.9213
v  0.1845 1.3039 -4.9213
v  -0.3691 0.9843 -0.7382
v  -0.1230 0.7712 -2.7067
v  -0.1846 0.6646 -2.4606
v  -0.1230 0.7712 -3.9370
v  0.1845 0.6646 -4.9213
v  -0.2461 0.9843 -2.7067
v  -0.2461 0.9843 -3.9370
v  -0.3691 0.9843 -2.4606
v  -0.1846 1.3039 -4.9213
v  -0.3691 0.9843 -4.9213
v  -0.1846 0.6646 -4.9213
# 42 vertices

vn 0.8660 0.5000 0.0000
vn 0.8660 -0.5000 0.0000
vn 0.7947 0.4588 0.3974
vn 0.0000 1.0000 -0.0000
vn 0.0000 0.0000 1.0000
vn 0.0000 -1.0000 -0.0000
vn 0.7947 -0.4588 0.3974
vn 0.7947 0.4588 -0.3974
vn 0.0000 0.9177 0.3974
vn -0.8660 0.5000 -0.0000
vn -0.8660 -0.5000 -0.0000
vn 0.0000 -0.9177 0.3974
vn 0.7947 -0.4588 -0.3974
vn 0.0000 0.9177 -0.3974
vn 0.8610 0.4971 0.1076
vn -0.7947 0.4588 0.3974
vn -0.7947 -0.4588 0.3974
vn 0.0000 -0.9177 -0.3974
vn 0.8610 -0.4971 0.1076
vn -0.7947 0.4588 -0.3974
vn 0.0000 0.9942 0.1076
vn -0.0000 0.0000 -1.0000
vn -0.7947 -0.4588 -0.3974
vn 0.0000 -0.9942 0.1076
vn -0.8610 0.4971 0.1076
vn -0.8610 -0.4971 0.1076
vn -0.8660 0.5000 0.0000
vn 0.8660 0.5000 -0.0000
vn 0.8660 -0.5000 -0.0000
vn -0.8660 -0.5000 0.0000
# 30 vertex normals

vt 0.1200 0.8000 0.0000
vt 0.1600 0.9750 0.0000
vt 0.1200 0.9750 0.0000
vt 0.1600 0.8000 0.0000
vt 0.0800 0.8000 0.0000
vt 0.0800 0.9750 0.0000
vt 0.1600 0.7500 0.0000
vt 0.2200 0.7000 0.0000
vt 0.2000 0.7500 0.0000
vt 0.1600 0.7000 0.0000
vt 0.2000 0.8000 0.0000
vt 0.2000 0.9750 0.0000
vt 0.4384 0.9500 0.0000
vt 0.3803 0.9257 0.0000
vt 0.4190 0.9257 0.0000
vt 0.3609 0.9500 0.0000
vt 0.4190 0.9743 0.0000
vt 0.3803 0.9743 0.0000
vt 0.0400 0.8000 0.0000
vt 0.0400 0.9750 0.0000
vt 0.1000 0.7000 0.0000
vt 0.1200 0.7500 0.0000
vt 0.1600 0.4250 0.0000
vt 0.2000 0.3750 0.0000
vt 0.2200 0.4250 0.0000
vt 0.1600 0.3750 0.0000
vt 0.1200 0.2000 0.0000
vt 0.1600 0.3250 0.0000
vt 0.1200 0.3250 0.0000
vt 0.1600 0.2000 0.0000
vt 0.2800 0.7500 0.0000
vt 0.2800 0.7000 0.0000
vt 0.2400 0.7500 0.0000
vt 0.2400 0.9750 0.0000
vt 0.2400 0.8000 0.0000
vt 0.2800 0.9750 0.0000
vt 0.2800 0.8000 0.0000
vt 0.0600 0.7500 0.0000
vt 0.0400 0.7000 0.0000
vt 0.1000 0.7500 0.0000
vt 0.1200 0.3750 0.0000
vt 0.1000 0.4250 0.0000
vt 0.0800 0.2000 0.0000
vt 0.0800 0.3250 0.0000
vt 0.2000 0.2000 0.0000
vt 0.2000 0.3250 0.0000
vt 0.2800 0.3750 0.0000
vt 0.2800 0.4250 0.0000
vt 0.2400 0.3750 0.0000
vt 0.1600 0.0500 0.0000
vt 0.2000 0.1500 0.0000
vt 0.1600 0.1500 0.0000
vt 0.2200 0.0500 0.0000
vt 0.3000 0.7500 0.0000
vt 0.3400 0.7000 0.0000
vt 0.3400 0.7500 0.0000
vt 0.3800 0.7500 0.0000
vt 0.4000 0.7000 0.0000
vt 0.0400 0.3750 0.0000
vt 0.0400 0.4250 0.0000
vt 0.0800 0.3750 0.0000
vt 0.0400 0.2000 0.0000
vt 0.0400 0.3250 0.0000
vt 0.1000 0.0500 0.0000
vt 0.1200 0.1500 0.0000
vt 0.2400 0.3250 0.0000
vt 0.2400 0.2000 0.0000
vt 0.3000 0.3750 0.0000
vt 0.3400 0.4250 0.0000
vt 0.3400 0.3750 0.0000
vt 0.2800 0.1500 0.0000
vt 0.2800 0.0500 0.0000
vt 0.2400 0.1500 0.0000
vt 0.4793 0.8376 0.0000
vt 0.3908 0.8008 0.0000
vt 0.4498 0.8008 0.0000
vt 0.3614 0.8376 0.0000
vt 0.4498 0.8745 0.0000
vt 0.3908 0.8745 0.0000
vt 0.2800 0.2000 0.0000
vt 0.2800 0.3250 0.0000
vt 0.4000 0.4250 0.0000
vt 0.3800 0.3750 0.0000
vt 0.0600 0.1500 0.0000
vt 0.0400 0.0500 0.0000
vt 0.1000 0.1500 0.0000
vt 0.3400 0.1500 0.0000
vt 0.3000 0.1500 0.0000
vt 0.3400 0.0500 0.0000
vt 0.3800 0.1500 0.0000
vt 0.4000 0.0500 0.0000
vt 0.3400 0.4750 0.0000
vt 0.3400 0.6500 0.0000
vt 0.2800 0.6500 0.0000
vt 0.2800 0.4750 0.0000
vt 0.4000 0.4750 0.0000
vt 0.4000 0.6500 0.0000
vt 0.0400 0.6500 0.0000
vt 0.0400 0.4750 0.0000
vt 0.1000 0.4750 0.0000
vt 0.1000 0.6500 0.0000
vt 0.1600 0.4750 0.0000
vt 0.1600 0.6500 0.0000
vt 0.2200 0.4750 0.0000
vt 0.2200 0.6500 0.0000
# 105 texture coords

g group_5
usemtl Material__25
s off
f 1/1/1 2/2/1 3/3/1 
f 2/2/1 1/1/1 4/4/1 
f 5/5/2 3/3/2 6/6/2 
f 3/3/2 5/5/2 1/1/2 
f 1/7/3 7/8/3 4/9/3 
f 7/8/3 1/7/3 8/10/3 
f 2/2/4 9/11/4 10/12/4 
f 9/11/4 2/2/4 4/4/4 
f 3/13/5 11/14/5 6/15/5 
f 11/14/5 3/13/5 12/16/5 
f 12/16/5 3/13/5 2/17/5 
f 12/16/5 2/17/5 10/18/5 
f 13/19/6 6/6/6 11/20/6 
f 6/6/6 13/19/6 5/5/6 
f 14/21/7 1/7/7 5/22/7 
f 1/7/7 14/21/7 8/10/7 
f 15/23/8 16/24/8 17/25/8 
f 16/24/8 15/23/8 18/26/8 
f 19/27/1 16/28/1 18/29/1 
f 16/28/1 19/27/1 20/30/1 
f 9/31/9 7/8/9 21/32/9 
f 7/8/9 9/31/9 4/33/9 
f 9/11/10 12/34/10 10/12/10 
f 12/34/10 9/11/10 22/35/10 
f 22/35/11 11/36/11 12/34/11 
f 11/36/11 22/35/11 13/37/11 
f 14/21/12 13/38/12 23/39/12 
f 13/38/12 14/21/12 5/40/12 
f 24/41/13 15/23/13 25/42/13 
f 15/23/13 24/41/13 18/26/13 
f 26/43/2 18/29/2 24/44/2 
f 18/29/2 26/43/2 19/27/2 
f 16/28/4 27/45/4 28/46/4 
f 27/45/4 16/28/4 20/30/4 
f 17/25/14 28/47/14 29/48/14 
f 28/47/14 17/25/14 16/49/14 
f 30/50/15 20/51/15 19/52/15 
f 20/51/15 30/50/15 31/53/15 
f 9/54/16 32/55/16 22/56/16 
f 32/55/16 9/54/16 21/32/16 
f 32/55/17 13/57/17 22/56/17 
f 13/57/17 32/55/17 23/58/17 
f 33/59/18 25/42/18 34/60/18 
f 25/42/18 33/59/18 24/61/18 
f 35/62/6 24/44/6 33/63/6 
f 24/44/6 35/62/6 26/43/6 
f 36/64/19 19/52/19 26/65/19 
f 19/52/19 36/64/19 30/50/19 
f 27/45/10 37/66/10 28/46/10 
f 37/66/10 27/45/10 38/67/10 
f 28/68/20 39/69/20 29/48/20 
f 39/69/20 28/68/20 37/70/20 
f 27/71/21 31/53/21 40/72/21 
f 31/53/21 27/71/21 20/73/21 
f 41/74/22 36/75/22 42/76/22 
f 36/75/22 41/74/22 30/77/22 
f 30/77/22 41/74/22 40/78/22 
f 30/77/22 40/78/22 31/79/22 
f 37/66/11 35/80/11 33/81/11 
f 35/80/11 37/66/11 38/67/11 
f 37/70/23 34/82/23 39/69/23 
f 34/82/23 37/70/23 33/83/23 
f 36/64/24 35/84/24 42/85/24 
f 35/84/24 36/64/24 26/86/24 
f 40/72/25 38/87/25 27/88/25 
f 38/87/25 40/72/25 41/89/25 
f 41/89/26 35/90/26 38/87/26 
f 35/90/26 41/89/26 42/91/26 
f 21/92/10 29/93/10 39/94/10 
f 21/92/27 39/94/27 32/95/27 
f 29/93/4 21/92/4 7/96/4 
f 29/93/4 7/96/4 17/97/4 
f 17/98/28 7/99/28 8/100/28 
f 17/98/28 8/100/28 15/101/28 
f 15/101/29 8/100/29 14/102/29 
f 15/101/29 14/102/29 25/103/29 
f 25/103/6 14/102/6 23/104/6 
f 25/103/6 23/104/6 34/105/6 
f 34/105/11 23/104/11 32/95/11 
f 34/105/30 32/95/30 39/94/30 
# 80 faces

#
# object group_4
#

v  -0.2461 0.9843 -0.1421
v  -0.2461 -0.4921 0.1421
v  -0.2461 0.9843 0.1421
v  -0.2461 -0.4921 -0.1421
v  -0.0000 -0.4921 -0.2841
v  -0.0000 0.9843 -0.2841
v  -0.0000 -0.4921 0.2841
v  0.2461 -0.4921 -0.1421
v  0.2461 -0.4921 0.1421
v  -0.0000 0.9843 0.2841
v  0.2461 0.9843 -0.1421
v  0.2461 0.9843 0.1421
# 12 vertices

vn -1.0000 -0.0000 0.0000
vn -0.5000 0.0000 -0.8660
vn 0.0000 -1.0000 -0.0000
vn -0.5000 -0.0000 0.8660
vn 0.5000 0.0000 -0.8660
vn 1.0000 0.0000 -0.0000
vn 0.5000 -0.0000 0.8660
# 7 vertex normals

vt 0.6400 0.7500 0.0000
vt 0.6800 0.6000 0.0000
vt 0.6800 0.7500 0.0000
vt 0.6400 0.6000 0.0000
vt 0.6000 0.6000 0.0000
vt 0.6000 0.7500 0.0000
vt 0.6012 0.8007 0.0000
vt 0.5623 0.8374 0.0000
vt 0.5623 0.8130 0.0000
vt 0.6012 0.8496 0.0000
vt 0.6400 0.8130 0.0000
vt 0.6400 0.8374 0.0000
vt 0.7200 0.7500 0.0000
vt 0.7200 0.6000 0.0000
vt 0.5600 0.7500 0.0000
vt 0.5600 0.6000 0.0000
vt 0.5200 0.6000 0.0000
vt 0.5200 0.7500 0.0000
vt 0.4800 0.7500 0.0000
vt 0.4800 0.6000 0.0000
# 20 texture coords

g group_4
usemtl Material__25
s off
f 43/106/31 44/107/31 45/108/31 
f 44/107/31 43/106/31 46/109/31 
f 43/106/32 47/110/32 46/109/32 
f 47/110/32 43/106/32 48/111/32 
f 47/112/33 44/113/33 46/114/33 
f 44/113/33 47/112/33 49/115/33 
f 49/115/33 47/112/33 50/116/33 
f 49/115/33 50/116/33 51/117/33 
f 52/118/34 44/107/34 49/119/34 
f 44/107/34 52/118/34 45/108/34 
f 47/110/35 53/120/35 50/121/35 
f 53/120/35 47/110/35 48/111/35 
f 51/122/36 53/120/36 54/123/36 
f 53/120/36 51/122/36 50/121/36 
f 51/122/37 52/124/37 49/125/37 
f 52/124/37 51/122/37 54/123/37 
# 16 faces

#
# object group_3
#

v  -0.2461 1.4104 2.5837
v  -0.2461 0.9843 1.5994
v  -0.4921 0.9843 2.5837
v  -0.1230 1.1973 1.5994
v  -0.1230 1.1973 3.8140
v  -0.2461 0.9843 3.8140
v  0.2461 1.4104 2.5837
v  0.1230 1.1973 1.5994
v  -0.1846 1.3039 1.3533
v  -0.3691 0.9843 1.3533
v  -0.2461 0.5581 2.5837
v  -0.1230 0.7712 1.5994
v  0.2461 0.9843 3.8140
v  -0.1230 0.7712 3.8140
v  0.1230 0.7712 3.8140
v  0.1230 1.1973 3.8140
v  0.4921 0.9843 2.5837
v  0.2461 0.9843 1.5994
v  0.1845 1.3039 1.3533
v  -0.1846 0.6646 1.3533
v  0.1845 0.6646 1.3533
v  0.3691 0.9843 1.3533
v  0.2461 0.5581 2.5837
v  0.1230 0.7712 1.5994
# 24 vertices

vn -0.8464 0.4887 -0.2116
vn -0.8533 0.4927 0.1707
vn -0.0000 0.9774 -0.2116
vn -0.7947 0.4588 0.3974
vn -0.8464 -0.4887 -0.2116
vn 0.0000 0.0000 1.0000
vn 0.0000 0.9853 0.1707
vn -0.8533 -0.4927 0.1707
vn 0.8464 0.4887 -0.2116
vn -0.0000 0.9177 0.3974
vn -0.7947 -0.4588 0.3974
vn 0.0000 0.0000 -1.0000
vn -0.0000 -0.9774 -0.2116
vn 0.0000 -0.9853 0.1707
vn 0.8533 -0.4927 0.1707
vn 0.8533 0.4927 0.1707
vn 0.8464 -0.4887 -0.2116
vn 0.7947 0.4588 0.3974
vn 0.0000 -0.9177 0.3974
vn 0.7947 -0.4588 0.3974
# 20 vertex normals

vt 0.8000 0.4250 0.0000
vt 0.8600 0.3250 0.0000
vt 0.8800 0.4250 0.0000
vt 0.8200 0.3250 0.0000
vt 0.8200 0.5500 0.0000
vt 0.8600 0.5500 0.0000
vt 0.7200 0.4250 0.0000
vt 0.7800 0.3250 0.0000
vt 0.7400 0.3250 0.0000
vt 0.7200 0.2500 0.0000
vt 0.7800 0.2750 0.0000
vt 0.7400 0.2750 0.0000
vt 0.7800 0.2500 0.0000
vt 0.9000 0.3250 0.0000
vt 0.9600 0.4250 0.0000
vt 0.9400 0.3250 0.0000
vt 0.8799 0.6247 0.0000
vt 0.8211 0.6007 0.0000
vt 0.8603 0.6007 0.0000
vt 0.8015 0.6247 0.0000
vt 0.8603 0.6488 0.0000
vt 0.8211 0.6488 0.0000
vt 0.7800 0.5500 0.0000
vt 0.7400 0.5500 0.0000
vt 0.9400 0.5500 0.0000
vt 0.9000 0.5500 0.0000
vt 0.6400 0.4250 0.0000
vt 0.7000 0.3250 0.0000
vt 0.6600 0.3250 0.0000
vt 0.7200 0.2750 0.0000
vt 0.6600 0.2500 0.0000
vt 0.6800 0.2750 0.0000
vt 0.8200 0.2750 0.0000
vt 0.8400 0.2500 0.0000
vt 0.5969 0.1630 0.0000
vt 0.5114 0.1262 0.0000
vt 0.5684 0.1262 0.0000
vt 0.4829 0.1630 0.0000
vt 0.5684 0.1998 0.0000
vt 0.5114 0.1998 0.0000
vt 0.5000 0.3250 0.0000
vt 0.5600 0.4250 0.0000
vt 0.4800 0.4250 0.0000
vt 0.5400 0.3250 0.0000
vt 0.5000 0.5500 0.0000
vt 0.5400 0.5500 0.0000
vt 0.6200 0.5500 0.0000
vt 0.5800 0.5500 0.0000
vt 0.6600 0.5500 0.0000
vt 0.7000 0.5500 0.0000
vt 0.5800 0.3250 0.0000
vt 0.6200 0.3250 0.0000
vt 0.6000 0.2750 0.0000
vt 0.6400 0.2750 0.0000
vt 0.6000 0.2500 0.0000
vt 0.5400 0.2500 0.0000
vt 0.4800 0.2750 0.0000
vt 0.4800 0.2500 0.0000
vt 0.5200 0.2750 0.0000
vt 0.5600 0.2750 0.0000
# 60 texture coords

g group_3
usemtl Material__25
s off
f 55/126/38 56/127/38 57/128/38 
f 56/127/38 55/126/38 58/129/38 
f 59/130/39 57/128/39 60/131/39 
f 57/128/39 59/130/39 55/126/39 
f 61/132/40 58/133/40 55/126/40 
f 58/133/40 61/132/40 62/134/40 
f 63/135/41 56/136/41 58/137/41 
f 56/136/41 63/135/41 64/138/41 
f 56/139/42 65/140/42 57/128/42 
f 65/140/42 56/139/42 66/141/42 
f 67/142/43 68/143/43 69/144/43 
f 68/143/43 67/142/43 60/145/43 
f 60/145/43 67/142/43 70/146/43 
f 60/145/43 70/146/43 59/147/43 
f 59/148/44 61/132/44 55/126/44 
f 61/132/44 59/148/44 70/149/44 
f 57/128/45 68/150/45 60/151/45 
f 68/150/45 57/128/45 65/140/45 
f 71/152/46 62/153/46 61/132/46 
f 62/153/46 71/152/46 72/154/46 
f 58/155/47 73/156/47 63/135/47 
f 73/156/47 58/155/47 62/157/47 
f 64/138/48 66/158/48 56/136/48 
f 66/158/48 64/138/48 74/159/48 
f 64/160/49 75/161/49 74/162/49 
f 75/161/49 64/160/49 76/163/49 
f 76/163/49 64/160/49 63/164/49 
f 76/163/49 63/164/49 73/165/49 
f 66/166/50 77/167/50 65/168/50 
f 77/167/50 66/166/50 78/169/50 
f 77/167/51 68/170/51 65/168/51 
f 68/170/51 77/167/51 69/171/51 
f 77/167/52 67/172/52 69/173/52 
f 67/172/52 77/167/52 71/152/52 
f 67/174/53 61/132/53 70/175/53 
f 61/132/53 67/174/53 71/152/53 
f 78/176/54 71/152/54 77/167/54 
f 71/152/54 78/176/54 72/177/54 
f 72/178/55 73/156/55 62/179/55 
f 73/156/55 72/178/55 76/180/55 
f 75/181/56 66/182/56 74/183/56 
f 66/182/56 75/181/56 78/184/56 
f 75/181/57 72/178/57 78/185/57 
f 72/178/57 75/181/57 76/180/57 
# 44 faces

#
# object group_2
#

v  -0.1846 0.9843 0.1230
v  0.0923 0.8244 0.1230
v  -0.0923 0.8244 0.1230
v  0.1845 0.9843 0.1230
v  -0.0923 1.1441 0.1230
v  0.0923 1.1441 0.1230
v  -0.0923 0.8244 1.3533
v  -0.1846 0.9843 1.3533
v  -0.0923 1.1441 1.3533
v  0.0923 1.1441 1.3533
v  0.1845 0.9843 1.3533
v  0.0923 0.8244 1.3533
# 12 vertices

vn 0.0000 0.0000 -1.0000
vn -0.8660 -0.5000 -0.0000
vn -0.8660 0.5000 -0.0000
vn 0.0000 1.0000 -0.0000
vn 0.8660 0.5000 -0.0000
vn 0.8660 -0.5000 -0.0000
vn 0.0000 -1.0000 -0.0000
# 7 vertex normals

vt 0.5585 0.0502 0.0000
vt 0.5006 0.0259 0.0000
vt 0.5392 0.0259 0.0000
vt 0.4813 0.0502 0.0000
vt 0.5392 0.0745 0.0000
vt 0.5006 0.0745 0.0000
vt 0.7200 0.2000 0.0000
vt 0.6800 0.0750 0.0000
vt 0.7200 0.0750 0.0000
vt 0.6800 0.2000 0.0000
vt 0.7600 0.2000 0.0000
vt 0.7600 0.0750 0.0000
vt 0.8000 0.0750 0.0000
vt 0.8000 0.2000 0.0000
vt 0.8400 0.2000 0.0000
vt 0.8400 0.0750 0.0000
vt 0.8800 0.2000 0.0000
vt 0.8800 0.0750 0.0000
vt 0.9200 0.0750 0.0000
vt 0.9200 0.2000 0.0000
# 20 texture coords

g group_2
usemtl Material__25
s off
f 79/186/58 80/187/58 81/188/58 
f 80/187/58 79/186/58 82/189/58 
f 82/189/58 79/186/58 83/190/58 
f 82/189/58 83/190/58 84/191/58 
f 79/192/59 85/193/59 86/194/59 
f 85/193/59 79/192/59 81/195/59 
f 83/196/60 86/194/60 87/197/60 
f 86/194/60 83/196/60 79/192/60 
f 88/198/61 83/196/61 87/197/61 
f 83/196/61 88/198/61 84/199/61 
f 82/200/62 88/198/62 89/201/62 
f 88/198/62 82/200/62 84/199/62 
f 80/202/63 89/201/63 90/203/63 
f 89/201/63 80/202/63 82/200/63 
f 80/202/64 85/204/64 81/205/64 
f 85/204/64 80/202/64 90/203/64 
# 16 faces

#
# object group_1
#

v  -0.1230 0.9843 3.8140
v  -0.0615 0.8777 4.0600
v  -0.1230 0.9843 4.0600
v  -0.0615 0.8777 3.8140
v  0.0615 0.8777 3.8140
v  0.0615 0.8777 4.0600
v  0.1230 0.9843 4.0600
v  0.0615 1.0908 4.0600
v  -0.0615 1.0908 4.0600
v  -0.0615 1.0908 3.8140
v  0.1230 0.9843 3.8140
v  0.0615 1.0908 3.8140
# 12 vertices

vn -0.8660 -0.5000 -0.0000
vn 0.0000 -1.0000 -0.0000
vn 0.0000 0.0000 1.0000
vn -0.8660 0.5000 -0.0000
vn 0.8660 -0.5000 -0.0000
vn 0.8660 0.5000 -0.0000
vn 0.0000 1.0000 -0.0000
# 7 vertex normals

vt 0.5800 0.9500 0.0000
vt 0.6000 0.9750 0.0000
vt 0.5800 0.9750 0.0000
vt 0.6000 0.9500 0.0000
vt 0.5400 0.9500 0.0000
vt 0.5200 0.9750 0.0000
vt 0.5200 0.9500 0.0000
vt 0.5400 0.9750 0.0000
vt 0.7593 0.9625 0.0000
vt 0.7304 0.9504 0.0000
vt 0.7497 0.9504 0.0000
vt 0.7207 0.9625 0.0000
vt 0.7497 0.9746 0.0000
vt 0.7304 0.9746 0.0000
vt 0.6200 0.9500 0.0000
vt 0.6400 0.9750 0.0000
vt 0.6200 0.9750 0.0000
vt 0.6400 0.9500 0.0000
vt 0.5600 0.9500 0.0000
vt 0.5600 0.9750 0.0000
# 20 texture coords

g group_1
usemtl Material__25
s off
f 91/206/65 92/207/65 93/208/65 
f 92/207/65 91/206/65 94/209/65 
f 95/210/66 92/211/66 94/212/66 
f 92/211/66 95/210/66 96/213/66 
f 97/214/67 92/215/67 96/216/67 
f 92/215/67 97/214/67 93/217/67 
f 93/217/67 97/214/67 98/218/67 
f 93/217/67 98/218/67 99/219/67 
f 100/220/68 93/221/68 99/222/68 
f 93/221/68 100/220/68 91/223/68 
f 95/208/69 97/224/69 96/206/69 
f 97/224/69 95/208/69 101/225/69 
f 101/222/70 98/209/70 97/220/70 
f 98/209/70 101/222/70 102/207/70 
f 98/224/71 100/213/71 99/210/71 
f 100/213/71 98/224/71 102/225/71 
# 16 faces

